# xmcd
#
# Track frame offsets:
#  150
#  11220
#  22620
#  38698
#  48958
#  62328
#  80863
#  92752
#  112220
#  126210
#  144128
#  159623
#  179072
#  197817
#  215217
#  234637
#  260064
#
# Disc length: 3771 seconds
#
# Revision: 2
# Processed by: cddbd v1.5.1PL0 Copyright (c) Steve Scherf et al.
# Submitted via: Collectorz.com Music Collector 6.9
#
DISCID=f40eb911
DTITLE=Diverse Interpreten - Real Country
DYEAR=2001
DGENRE=Country
TTITLE0=Johnny Cash - Solitary Man
TTITLE1=Willie Nelson - On the road again
TTITLE2=Dixie Chicks - Without you
TTITLE3=Rick van Shelton - Making plans
TTITLE4=Dwight Yoakam - What you know about love
TTITLE5=Travis Tritt - I'm gonna be somebody
TTITLE6=Reba McEntire - There ain't no future in this
TTITLE7=Travis Trit - Best of intentions
TTITLE8=Highwayman - Highwayman
TTITLE9=Jane O'Neal - There is no Arizona
TTITLE10=Billy Ray Cyrus - Achy break heart
TTITLE11=Ian Tyson - Lost herd
TTITLE12=Venice - Rivers never run
TTITLE13=Terry Radigan - When I comes to you
TTITLE14=John Jennings - Movieland
TTITLE15=Lee Roy Parnell - Tell the truth
TTITLE16=David Wilcox - Slipping through my first
EXTD=
EXTT0=
EXTT1=
EXTT2=
EXTT3=
EXTT4=
EXTT5=
EXTT6=
EXTT7=
EXTT8=
EXTT9=
EXTT10=
EXTT11=
EXTT12=
EXTT13=
EXTT14=
EXTT15=
EXTT16=
PLAYORDER=
